<?xml version="1.0" encoding="UTF-8"?><svg id="a" xmlns="http://www.w3.org/2000/svg" viewBox="0 0 602.37 109.32"><path d="M0,108.86C21.09,72.33,41.86,36.35,62.85,0c3.42,5.9,6.42,11.54,9.9,16.88,1.73,2.66,1.44,4.56-.06,7.13-16.03,27.54-31.93,55.15-47.93,82.71-.51.88-1.59,2.02-2.43,2.04-7.23.16-14.46.09-22.34.09Z" style="fill:#0058ff; stroke-width:0px;"/><path d="M37.96,109.14c14.84-25.72,29.37-50.89,44.1-76.41,3.08,5.32,5.55,10.6,8.96,15.2,3.33,4.49,2.24,7.85-.32,12.13-8.68,14.47-17.1,29.1-25.32,43.83-2.13,3.81-4.31,5.77-8.98,5.37-5.86-.51-11.8-.12-18.44-.12Z" style="stroke-width:0px;"/><path d="M126.15,109.12c-8.18,0-15.67.03-23.15-.05-.58,0-1.36-.61-1.68-1.16-3.55-5.98-7.06-11.99-10.47-18.05-.37-.65-.39-1.85-.04-2.51,3.56-6.65,7.23-13.24,11.09-20.25,8.12,14.06,16.03,27.77,24.25,42.01Z" style="stroke-width:0px;"/><path d="M83.45,96.05c3.65,0,6.68,2.75,6.67,6.05-.02,3.88-2.76,6.67-6.57,6.69-3.9.02-6.51-2.5-6.52-6.3-.01-3.66,2.76-6.43,6.43-6.44Z" style="fill:#0058ff; stroke-width:0px;"/><path d="M153.02,79.51l23.01-50.81h7.19l23.08,50.81h-7.62l-20.54-46.74h2.9l-20.54,46.74h-7.48ZM162.81,66.81l1.96-5.81h28.6l2.11,5.81h-32.66Z" style="stroke-width:0px;"/><path d="M229.23,79.95c-3.92,0-7.42-.85-10.49-2.54s-5.48-4.02-7.22-6.97c-1.74-2.95-2.61-6.34-2.61-10.16s.87-7.21,2.61-10.16c1.74-2.95,4.15-5.26,7.22-6.93,3.07-1.67,6.57-2.5,10.49-2.5,3.48,0,6.59.69,9.33,2.07,2.73,1.38,4.85,3.42,6.35,6.13l-5.3,3.41c-1.26-1.89-2.8-3.28-4.61-4.17-1.81-.89-3.76-1.34-5.84-1.34-2.52,0-4.77.56-6.75,1.67-1.98,1.11-3.56,2.67-4.72,4.68-1.16,2.01-1.74,4.39-1.74,7.15s.58,5.15,1.74,7.19c1.16,2.03,2.73,3.6,4.72,4.72,1.98,1.11,4.23,1.67,6.75,1.67,2.08,0,4.03-.45,5.84-1.34,1.81-.89,3.35-2.29,4.61-4.17l5.3,3.34c-1.5,2.66-3.62,4.71-6.35,6.13-2.73,1.43-5.84,2.14-9.33,2.14Z" style="stroke-width:0px;"/><path d="M270.46,79.95c-4.11,0-7.73-.85-10.85-2.54-3.12-1.69-5.54-4.02-7.26-6.97-1.72-2.95-2.58-6.34-2.58-10.16s.84-7.21,2.5-10.16c1.67-2.95,3.97-5.26,6.9-6.93,2.93-1.67,6.23-2.5,9.91-2.5s7.02.82,9.87,2.47c2.86,1.65,5.09,3.96,6.71,6.93s2.43,6.45,2.43,10.42c0,.29-.01.63-.04,1.02-.03.39-.06.75-.11,1.09h-32.73v-5.01h29.11l-2.83,1.74c.05-2.47-.46-4.67-1.52-6.61-1.07-1.93-2.53-3.45-4.39-4.54-1.86-1.09-4.03-1.63-6.5-1.63s-4.57.54-6.46,1.63-3.36,2.61-4.43,4.57c-1.06,1.96-1.6,4.2-1.6,6.71v1.16c0,2.57.59,4.85,1.78,6.86,1.18,2.01,2.84,3.57,4.97,4.68,2.13,1.11,4.57,1.67,7.33,1.67,2.27,0,4.34-.39,6.21-1.16,1.86-.77,3.5-1.93,4.9-3.48l3.85,4.5c-1.74,2.03-3.91,3.58-6.5,4.65s-5.48,1.6-8.67,1.6Z" style="stroke-width:0px;"/><path d="M296.22,79.51V28.71h23.23c4.65,0,8.65.75,12.01,2.25,3.36,1.5,5.96,3.67,7.8,6.5,1.84,2.83,2.76,6.18,2.76,10.05s-.92,7.13-2.76,9.91c-1.84,2.78-4.44,4.91-7.8,6.39-3.36,1.48-7.37,2.21-12.01,2.21h-15.24l6.39-6.02v19.52h-14.37ZM310.59,61.51l-6.39-6.61h14.37c3,0,5.24-.65,6.71-1.96,1.48-1.31,2.21-3.12,2.21-5.44s-.74-4.21-2.21-5.52c-1.48-1.31-3.71-1.96-6.71-1.96h-14.37l6.39-6.61v28.09ZM327.65,79.51l-12.63-18.51h15.31l12.7,18.51h-15.39Z" style="stroke-width:0px;"/><path d="M369.89,80.17c-4.64,0-8.7-.88-12.16-2.65-3.46-1.76-6.14-4.18-8.06-7.26-1.91-3.07-2.87-6.57-2.87-10.49s.93-7.42,2.79-10.49c1.86-3.07,4.44-5.47,7.73-7.19,3.29-1.72,6.99-2.58,11.1-2.58,3.87,0,7.4.79,10.6,2.36,3.19,1.57,5.73,3.88,7.62,6.93,1.89,3.05,2.83,6.75,2.83,11.1,0,.48-.02,1.04-.07,1.67-.05.63-.1,1.21-.14,1.74h-31.14v-7.26h23.81l-5.23,2.03c.05-1.79-.28-3.34-.98-4.65-.7-1.31-1.67-2.32-2.9-3.05-1.23-.73-2.67-1.09-4.32-1.09s-3.08.36-4.32,1.09c-1.23.73-2.19,1.75-2.87,3.08-.68,1.33-1.02,2.89-1.02,4.68v2.11c0,1.94.4,3.6,1.2,5.01.8,1.4,1.95,2.48,3.45,3.23,1.5.75,3.29,1.13,5.37,1.13,1.94,0,3.59-.28,4.97-.83,1.38-.56,2.75-1.41,4.1-2.58l7.26,7.55c-1.89,2.08-4.21,3.67-6.97,4.75-2.76,1.09-6.02,1.63-9.8,1.63Z" style="stroke-width:0px;"/><path d="M410.18,80.17c-3.34,0-6.59-.39-9.76-1.16s-5.72-1.74-7.66-2.9l4.14-9.44c1.84,1.11,3.99,2,6.46,2.65,2.47.65,4.89.98,7.26.98s3.93-.24,4.83-.73c.89-.48,1.34-1.14,1.34-1.96,0-.77-.42-1.34-1.27-1.71-.85-.36-1.96-.64-3.34-.83s-2.89-.41-4.54-.65c-1.65-.24-3.3-.57-4.97-.98-1.67-.41-3.19-1.04-4.57-1.89-1.38-.85-2.48-2-3.3-3.45-.82-1.45-1.23-3.29-1.23-5.52,0-2.52.74-4.75,2.22-6.71,1.48-1.96,3.64-3.51,6.5-4.65,2.85-1.14,6.34-1.71,10.45-1.71,2.76,0,5.55.28,8.38.83,2.83.56,5.21,1.39,7.15,2.5l-4.14,9.36c-1.94-1.11-3.87-1.88-5.81-2.29-1.94-.41-3.77-.62-5.52-.62-2.32,0-3.96.27-4.9.8-.94.53-1.42,1.19-1.42,1.96s.41,1.37,1.23,1.78c.82.41,1.92.73,3.3.94,1.38.22,2.89.44,4.54.65,1.65.22,3.3.54,4.97.98,1.67.44,3.19,1.08,4.57,1.92,1.38.85,2.48,1.98,3.3,3.41.82,1.43,1.23,3.25,1.23,5.48,0,2.42-.74,4.6-2.21,6.53-1.48,1.94-3.65,3.48-6.53,4.65-2.88,1.16-6.45,1.74-10.71,1.74Z" style="stroke-width:0px;"/><path d="M452.13,80.17c-3.19,0-6.06-.63-8.6-1.89-2.54-1.26-4.52-3.23-5.95-5.91-1.43-2.69-2.14-6.09-2.14-10.2v-21.99h13.79v19.74c0,3.05.57,5.23,1.71,6.53,1.14,1.31,2.75,1.96,4.83,1.96,1.35,0,2.59-.31,3.7-.94s2.01-1.63,2.69-3.01c.68-1.38,1.02-3.16,1.02-5.34v-18.94h13.79v39.34h-13.14v-11.1l2.54,3.12c-1.36,2.9-3.32,5.07-5.88,6.5-2.57,1.43-5.35,2.14-8.35,2.14Z" style="stroke-width:0px;"/><path d="M537.05,39.52c3.05,0,5.77.62,8.16,1.85,2.4,1.23,4.28,3.13,5.66,5.7,1.38,2.57,2.07,5.88,2.07,9.94v22.5h-13.79v-20.25c0-2.81-.53-4.85-1.6-6.13-1.07-1.28-2.52-1.92-4.35-1.92-1.31,0-2.49.31-3.56.94-1.06.63-1.89,1.58-2.47,2.87-.58,1.28-.87,2.94-.87,4.97v19.52h-13.79v-20.25c0-2.81-.52-4.85-1.56-6.13-1.04-1.28-2.5-1.92-4.39-1.92-1.36,0-2.55.31-3.59.94-1.04.63-1.86,1.58-2.47,2.87-.61,1.28-.91,2.94-.91,4.97v19.52h-13.79v-39.34h13.14v10.96l-2.61-3.12c1.45-2.81,3.44-4.92,5.95-6.35,2.51-1.43,5.32-2.14,8.42-2.14,3.53,0,6.64.91,9.33,2.72,2.69,1.81,4.49,4.63,5.41,8.46l-4.5-.94c1.4-3.19,3.52-5.7,6.35-7.51,2.83-1.81,6.08-2.72,9.76-2.72Z" style="stroke-width:0px;"/><path d="M582.78,80.17c-4.64,0-8.7-.88-12.16-2.65-3.46-1.76-6.14-4.18-8.06-7.26-1.91-3.07-2.87-6.57-2.87-10.49s.93-7.42,2.79-10.49c1.86-3.07,4.44-5.47,7.73-7.19,3.29-1.72,6.99-2.58,11.1-2.58,3.87,0,7.4.79,10.6,2.36,3.19,1.57,5.73,3.88,7.62,6.93,1.89,3.05,2.83,6.75,2.83,11.1,0,.48-.02,1.04-.07,1.67-.05.63-.1,1.21-.14,1.74h-31.14v-7.26h23.81l-5.23,2.03c.05-1.79-.28-3.34-.98-4.65-.7-1.31-1.67-2.32-2.9-3.05-1.23-.73-2.67-1.09-4.32-1.09s-3.08.36-4.32,1.09c-1.23.73-2.19,1.75-2.87,3.08-.68,1.33-1.02,2.89-1.02,4.68v2.11c0,1.94.4,3.6,1.2,5.01.8,1.4,1.95,2.48,3.45,3.23,1.5.75,3.29,1.13,5.37,1.13,1.94,0,3.59-.28,4.97-.83,1.38-.56,2.75-1.41,4.1-2.58l7.26,7.55c-1.89,2.08-4.21,3.67-6.97,4.75-2.76,1.09-6.02,1.63-9.8,1.63Z" style="stroke-width:0px;"/></svg>