<?xml version="1.0" encoding="UTF-8"?><svg id="a" xmlns="http://www.w3.org/2000/svg" viewBox="0 0 1024 1024"><path d="M174.96,690.14c-40.29-.43-74.91-13.38-103.07-41.7-22.09-22.21-35.54-49.22-40.8-79.94-10.17-59.36,5.76-112.25,42.18-159.19,26.3-33.89,60.08-57.74,101.75-69.11,42.13-11.5,82.83-7.88,120.49,15.41,33.36,20.64,53.76,51.13,63.63,88.74,9.2,35.04,6.87,69.81-4.1,104.11-11.27,35.24-30.61,65.47-57.75,90.54-28.87,26.67-62.48,43.9-101.63,49.66-2.71.4-5.45.65-8.19.83-4.38.29-8.77.45-12.5.64Z" style="fill:#f4f4f4; stroke-width:0px;"/><path d="M995.84,493.55c-7.53-9.1-15.69-16.15-25.18-21.64-14.1-8.16-29.28-12.64-45.56-11.5-25.71,1.81-41.48,15.44-47.26,40.85-4.48,19.69-4.47,39.47,2.63,58.66,6.81,18.39,20.46,28.55,39.86,30.81,24.28,2.83,45-5.72,63.67-20.44,2.06-1.63,3.98-3.45,5.91-5.25,1.83-1.71,3.58-3.52,5.35-5.27,1.06.52.56,1.4.56,2.06.03,15.6-.02,31.2.08,46.79.01,2.18-.61,3.19-2.66,4.13-16.32,7.5-33.02,14.02-50.99,15.83-29.73,3.01-57.66-1.66-81.02-22.1-13.73-12.01-22.1-27.42-26.21-45.04-6.57-28.2-6.55-56.3,4.72-83.36,13.33-32.01,38.19-49.7,72.19-54.8,29.15-4.37,56.21,2.62,82.08,15.66,1.17.59,1.89,1.16,1.88,2.66-.05,17.01-.03,34.01-.03,51.94Z" style="fill:#999; stroke-width:0px;"/><path d="M365.28,426.66c15.23,0,30.14.04,45.05-.05,2.06-.01,2.26,1.38,2.77,2.61,7.06,16.76,14.09,33.53,21.12,50.29,10.89,25.95,21.78,51.91,32.68,77.86.29.68.67,1.32,1.29,2.53,3.39-8.16,6.6-15.84,9.79-23.53,14.75-35.62,29.52-71.23,44.2-106.87.88-2.13,1.91-2.92,4.29-2.9,14.05.13,28.11.06,42.65.06-1.93,4.53-3.72,8.81-5.57,13.07-23.53,54.2-47.07,108.41-70.61,162.61-2.97,6.83-6.01,13.63-8.88,20.51-.75,1.79-1.69,2.39-3.63,2.37-8.89-.11-17.79-.14-26.68.02-2.24.04-3.26-.69-4.12-2.69-13.87-32.29-27.8-64.55-41.73-96.81-13.75-31.84-27.5-63.68-41.25-95.53-.47-1.08-.86-2.2-1.38-3.54Z" style="fill:#999; stroke-width:0px;"/><path d="M623,526.13c0,31.96-.03,63.91.06,95.87,0,2.58-.63,3.26-3.22,3.23-12.41-.14-24.82-.11-37.23-.02-2.03.01-2.78-.36-2.78-2.63.07-64.46.07-128.92,0-193.38,0-2.37.91-2.59,2.86-2.57,12.41.07,24.82.13,37.23-.04,2.78-.04,3.14.94,3.13,3.35-.07,32.07-.05,64.13-.05,96.2Z" style="fill:#999; stroke-width:0px;"/><path d="M601.31,361.9c14.69-.06,26.63,11.44,26.6,25.63-.03,14.05-11.7,25.33-26.36,25.48-14.59.15-26.64-11.43-26.61-25.56.03-14.09,11.8-25.48,26.37-25.54Z" style="fill:#999; stroke-width:0px;"/><path d="M193.14,464.18c-.99-1.08-2.26-.45-3.39-.49-5.79-.22-11.6.29-17.38-.29-.88-5.87-.24-11.78-.37-17.67-.12-5.16.13-10.33-.08-15.48-.11-2.75.42-3.88,3.51-3.68,4.92.31,9.88-.07,14.82.14,2.68.11,3.52-.6,3.49-3.4-.14-15.48.02-30.97-.14-46.45-.03-2.93.74-3.66,3.63-3.62,12.08.17,24.16.15,36.23.01,2.56-.03,3.32.59,3.3,3.25-.13,15.7,0,31.4-.13,47.11-.02,2.47.62,3.11,3.1,3.09,19.87-.11,39.75.02,59.62-.14,3.05-.02,3.59.91,3.54,3.69-.16,9.99-.16,19.99,0,29.97.04,2.67-.56,3.51-3.39,3.49-19.76-.13-39.53,0-59.29-.15-2.96-.02-3.6.77-3.59,3.64.13,29.1.08,58.2.16,87.29.01,5.27.5,10.53,1.34,15.73,1.97,12.17,9.02,18.26,22.29,19.77,12.18,1.39,23.55-1.24,34.53-6.28,2.47-1.13,4.94-2.27,7.88-3.62,0,2.41,0,4.44,0,6.48,0,11.09,0,22.18,0,33.27,0,1.53.2,2.82-2.02,3.36-17.37,4.26-34.88,6.79-52.83,5.08-29.21-2.77-48.44-20.8-52.87-49.85-.82-5.4-1.23-10.86-1.83-16.3-.71-.74-.41-1.67-.41-2.51-.02-31.07-.01-62.15,0-93.22,0-.76-.17-1.54.28-2.25Z" style="fill:#999; stroke-width:0px;"/><path d="M159.6,525.8c0,32.06-.03,64.11.05,96.17,0,2.46-.46,3.36-3.17,3.32-12.29-.16-24.59-.13-36.89-.02-2.34.02-3.19-.44-3.18-3.03.08-64.22.08-128.44,0-192.67,0-2.66.97-2.99,3.24-2.97,12.19.1,24.37.13,36.56-.02,2.69-.03,3.47.57,3.47,3.38-.11,31.95-.07,63.89-.07,95.84Z" style="fill:#999; stroke-width:0px;"/><path d="M138.41,413.02c-14.46.27-26.57-10.87-26.88-24.72-.32-14.4,11.17-26.11,25.9-26.4,14.8-.29,26.79,10.92,27.02,25.25.23,14.17-11.28,25.59-26.04,25.87Z" style="fill:#999; stroke-width:0px;"/><path d="M115.95,427.5v196.62c-.11,0-.21,0-.32,0v-196.76c.11.05.21.1.32.14Z" style="fill:#999; stroke-width:0px;"/><path d="M193.14,464.18c.1.75.28,1.5.28,2.25.01,31.37.01,62.74,0,94.11,0,.54-.09,1.09-.14,1.63-.09,1.61-.17,3.22-.26,4.83-.17,0-.34-.01-.51-.02,0-1.18,0-2.37,0-3.55,0-31.6-.04-63.21.07-94.81.01-3.02-.78-3.99-3.84-3.85-5.3.25-10.63.07-15.94-.59h20.33Z" style="fill:#999; stroke-width:0px;"/><path d="M172.88,425.29c5.46,0,10.92-.14,16.37.06,2.65.09,3.33-.79,3.31-3.36-.11-14.9-.05-29.81-.05-44.72,0-1.08,0-2.15,0-3.49.98.75.63,1.52.63,2.15.02,15.56-.03,31.13.07,46.69.02,2.51-.57,3.49-3.27,3.39-5.67-.21-11.36-.06-17.04-.06,0-.22-.01-.44-.02-.66Z" style="fill:#999; stroke-width:0px;"/><path d="M117.6,625.77h41.07c0,.1,0,.21,0,.31h-41.2c.04-.1.08-.21.12-.31Z" style="fill:#999; stroke-width:0px;"/><path d="M171.31,427.49v35.15c-.11,0-.21,0-.32,0v-35.28c.11.04.21.09.32.13Z" style="fill:#999; stroke-width:0px;"/><path d="M819.51,510.03c-.07-10.58-1.28-21.03-4.2-31.21-7.67-26.75-24.27-45.04-51.17-53.27-13.72-4.2-27.85-5.03-42.06-3.55-36.89,3.86-63.13,22.71-77.39,56.95-10.61,25.48-11.21,52.14-5.31,78.86,5.71,25.89,20.07,45.7,43.52,58.52,18.62,10.17,38.91,13.37,59.77,13.15,25.11-.26,48.48-8.26,71.55-17.26,1.26-.49,1.57-1.23,1.57-2.48-.04-12.85-.06-25.7.01-38.55.01-1.86-.79-2.04-2.36-2.15-5.06-.35-9.37.77-13.81,3.68-20.55,13.5-42.86,20.56-67.86,18.06-29.26-2.93-48.97-22.51-51.56-51.76-.3-3.35.54-3.85,3.65-3.83,21.86.15,43.71.08,65.57.08,22.41,0,44.81-.03,67.22.05,2.28,0,2.98-.56,2.93-2.89-.15-7.47-.01-14.94-.07-22.4ZM773.19,500.21c-14.81-.21-29.63-.09-44.44-.09s-30.07-.04-45.1.04c-2.34.01-2.92-.35-2.31-2.91,5.79-24.42,24.08-38.93,49.26-39.02,6.28-.02,12.51.34,18.55,2.1,13.52,3.95,21.54,13.25,25.2,26.57.87,3.15,1.27,6.43,1.99,9.62.61,2.72.06,3.73-3.14,3.69Z" style="fill:#999; stroke-width:0px;"/></svg>
