<?xml version="1.0" encoding="UTF-8"?><svg id="a" xmlns="http://www.w3.org/2000/svg" viewBox="0 0 1024 1024"><path d="M-36,1053.38c0-363.13,0-726.25,0-1089.38,363.13,0,726.25,0,1089.38,0,0,363.13,0,726.25,0,1089.38-363.13,0-726.25,0-1089.38,0ZM512.04,4.91c-133.49,0-266.99-.15-400.48.07C46.1,5.09,5.45,46.36,5.44,112.15c-.05,264.74-.04,529.47,0,794.21,0,68.16,40.51,109.57,108.98,109.65,263.99.3,527.97.31,791.96,0,69.49-.08,109.76-41.61,109.77-111.35.03-263.24.03-526.47,0-789.71,0-69.83-40.17-109.94-110.36-110-131.24-.11-262.49-.03-393.73-.03Z" style="fill:#fff; stroke-width:0px;"/><path d="M512.04,4.91c131.24,0,262.49-.08,393.73.03,70.19.06,110.35,40.17,110.36,110,.04,263.24.03,526.47,0,789.71,0,69.75-40.27,111.27-109.77,111.35-263.99.31-527.97.3-791.96,0-68.46-.08-108.97-41.49-108.98-109.65-.03-264.74-.04-529.47,0-794.21.01-65.8,40.66-107.07,106.12-107.17,133.49-.22,266.99-.07,400.48-.07ZM128.81,315.19c0,32.99,1.05,66.03-.41,98.96-.82,18.58,6.3,23.61,23.33,22.39,15.67-1.12,31.48-.23,47.22-.23q34.2-.01,34.23-33.69c.03-58.49-.52-116.99.66-175.45.17-8.61,6.65-19.82,13.73-24.61,4.89-3.31,18.43-.2,23.4,4.75,5.29,5.27,6.85,16.09,6.93,24.52.54,60.73.99,121.49-.12,182.2-.33,18.35,5.91,23.72,23.21,22.55,17.91-1.22,36.17-1.92,53.92.14,23.84,2.76,28.9-6.98,28.39-29.1-1.42-60.7-.95-121.47.13-182.19.14-7.95,6.54-18.25,13.22-22.8,4.83-3.29,18.04-1.61,21.91,2.79,5.61,6.37,8.42,17.17,8.52,26.12.7,61.48.8,122.98.1,184.46-.18,15.79,5.1,21.36,20.76,20.55,20.19-1.04,40.57-1.43,60.7.1,19.54,1.48,23.83-6.67,23.54-24.65-.95-59.97-2.75-120.09.19-179.93,4.7-95.52-96.82-157.09-182.7-116.66-14.27,6.72-24.46,6.85-38.81.03-84.52-40.17-187.54,20.07-182.31,114.29,1.58,28.41.24,56.98.25,85.47ZM427.48,815.68c30.76,0,57.69-.86,84.54.32,16.36.72,20.25-5.78,20.09-20.91-.65-60.76-2.99-121.67.37-182.25,5.25-94.81-96.49-159.84-186.42-115.93-12.43,6.07-21.07,5.11-32.86-.61-85.54-41.56-189.86,18.3-184.94,115.68,3.02,59.86.51,120,.62,180.01.01,7.21.89,14.42,1.42,22.28h101.59c.48-10.13,1.24-18.96,1.26-27.79.12-59.26.18-118.53.02-177.79-.04-15.13,3.38-27.73,21.32-28.07,18.56-.36,23.9,11.5,23.82,28.19-.27,54.76-.09,109.52-.09,164.28,0,13.26,0,26.52,0,40.7h104.62c0-10.73,0-19.58,0-28.42,0-59.26.19-118.53-.1-177.79-.08-15.83,4.8-27.02,22.33-26.93,17.36.09,22.62,11.23,22.49,27.03-.3,35.25-.07,70.51-.07,105.77,0,32.86,0,65.71,0,102.22ZM892.21,269.61c.06-91.81-73.58-166.29-164.83-166.7-92.62-.42-167.81,73.86-168.18,166.14-.37,91.39,76.22,167.8,167.61,167.22,91.18-.58,165.34-75.3,165.4-166.66ZM892.21,649.7c.07-91.73-73.32-166.14-164.77-167.07-91.69-.93-167.95,74.48-168.26,166.39-.31,91.9,75.06,166.86,167.58,166.66,91.46-.19,165.38-74.35,165.45-165.98Z" style="fill:#999; stroke-width:0px;"/><path d="M128.81,315.19c0-28.49,1.33-57.06-.24-85.47-5.23-94.22,97.79-154.46,182.31-114.29,14.35,6.82,24.55,6.68,38.81-.03,85.89-40.43,187.4,21.15,182.7,116.66-2.94,59.84-1.14,119.96-.19,179.93.28,17.98-4,26.14-23.54,24.65-20.13-1.53-40.51-1.13-60.7-.1-15.65.8-20.94-4.77-20.76-20.55.7-61.48.6-122.98-.1-184.46-.1-8.95-2.91-19.75-8.52-26.12-3.88-4.4-17.09-6.08-21.91-2.79-6.68,4.55-13.08,14.85-13.22,22.8-1.08,60.72-1.54,121.49-.13,182.19.52,22.11-4.54,31.86-28.39,29.1-17.76-2.06-36.01-1.35-53.92-.14-17.31,1.17-23.55-4.2-23.21-22.55,1.11-60.72.66-121.47.12-182.2-.08-8.42-1.63-19.24-6.93-24.52-4.97-4.96-18.52-8.06-23.4-4.75-7.09,4.79-13.56,16.01-13.73,24.61-1.18,58.47-.63,116.96-.66,175.45q-.02,33.67-34.23,33.69c-15.75,0-31.56-.89-47.22.23-17.04,1.22-24.15-3.82-23.33-22.39,1.46-32.93.41-65.97.41-98.96Z" style="fill:#fff; stroke-width:0px;"/><path d="M427.48,815.68c0-36.51,0-69.36,0-102.22,0-35.26-.23-70.52.07-105.77.13-15.8-5.13-26.94-22.49-27.03-17.52-.09-22.41,11.1-22.33,26.93.3,59.26.11,118.52.1,177.79,0,8.85,0,17.7,0,28.42h-104.62c0-14.17,0-27.44,0-40.7,0-54.76-.18-109.52.09-164.28.08-16.69-5.26-28.55-23.82-28.19-17.94.34-21.37,12.94-21.32,28.07.16,59.26.1,118.52-.02,177.79-.02,8.83-.78,17.66-1.26,27.79h-101.59c-.52-7.86-1.4-15.07-1.42-22.28-.11-60.01,2.4-120.15-.62-180.01-4.92-97.38,99.4-157.24,184.94-115.68,11.79,5.73,20.42,6.68,32.86.61,89.94-43.92,191.67,21.12,186.42,115.93-3.35,60.58-1.02,121.49-.37,182.25.16,15.14-3.74,21.63-20.09,20.91-26.84-1.18-53.78-.32-84.54-.32Z" style="fill:#fff; stroke-width:0px;"/><path d="M725.77,338.43c-39.5-.1-69.63-30.57-69.18-69.97.43-37.99,30.71-68.5,68.55-69.07,38.14-.57,70.41,31.18,70.67,69.54.26,38.76-30.8,69.59-70.04,69.49Z" style="fill:#999; stroke-width:0px;"/><path d="M656.62,647.12c1.17-39.09,32.9-68.52,72.28-67.03,38,1.44,67.66,32.7,66.92,70.53-.75,38.5-33.2,69.63-71.55,68.64-38.67-1-68.81-33.14-67.65-72.14Z" style="fill:#999; stroke-width:0px;"/></svg>