<?xml version="1.0" encoding="UTF-8"?>
<svg id="svg5704" xmlns="http://www.w3.org/2000/svg" xmlns:xlink="http://www.w3.org/1999/xlink" xmlns:svg="http://www.w3.org/2000/svg" xmlns:rdf="http://www.w3.org/1999/02/22-rdf-syntax-ns#" xmlns:dc="http://purl.org/dc/elements/1.1/" xmlns:cc="http://creativecommons.org/ns#" version="1.1" viewBox="0 0 892.9 314.3">
  <defs>
    <style>
      .cls-1 {
        clip-path: url(#clippath);
      }

      .cls-2 {
        fill: none;
      }

      .cls-2, .cls-3 {
        stroke-width: 0px;
      }

      .cls-3 {
        fill: #999;
      }
    </style>
    <clipPath id="clippath">
      <polygon class="cls-2" points="-86.8 400 976.8 400 976.8 -76.2 -86.8 -76.2 -86.8 400 -86.8 400"/>
    </clipPath>
  </defs>
  <g id="layer1">
    <g id="g5781">
      <g id="g5104">
        <path id="path5106" class="cls-3" d="M708.4,22.8h23.3v-8.6h-81.3v8.6h23.5v163.6h-23.5v8.5h81.3v-8.5h-23.3V22.8Z"/>
      </g>
      <g id="g5108">
        <g class="cls-1">
          <g id="g5110">
            <g id="g5116">
              <path id="path5118" class="cls-3" d="M856.4,194.9v-8.5h-24.9V21c38.1-1.9,44.6,6.3,49.5,40.8h8.4l-3-47.6h-144.7l-2.9,47.6h8.6c4.9-34.6,11.4-42.7,49.5-40.8v165.5h-24.9v8.5s84.5,0,84.5,0"/>
            </g>
            <g id="g5120">
              <path id="path5122" class="cls-3" d="M634.9,22.7v-8.5h-66.7l-39.2,123.6-37.8-123.6h-66.4v8.5h23.4v163.7h-25.2c-23.4.5-23.8-19.4-23.7-23.6.3-44.1-9.5-60.1-51.7-66.6v-.6c25.2-2.7,57.4-9.8,57.4-40.4s-35.1-41.1-64.7-41.1h-87.1v8.5h23.3v163.7h-23.3v8.5h81.3v-8.5h-23.3v-86.3c15-.6,31.9,3.2,39.5,9.8,7,6,10.8,24.5,10.8,46.9s14.3,38.1,41.6,38.1h78.3v-8.5h-22.8V25.5h.6l53.8,169.4h9.1l54.1-169.4h.8v160.9h-23.3v8.5h81.2v-8.5h-23.3V22.7h23.3ZM311.1,91.7V22.7h23.5c24.1,0,33,6.1,33,36.4s-10,32.5-34.4,32.5h-22.2"/>
            </g>
            <g id="g5124">
              <path id="path5126" class="cls-3" d="M109.3,3.5h-27v21.9h-44.9v45.7H3.5v67.1h33.8v45.7h44.9v21.9h23.8c55.6,0,104.6-44.9,104.6-100.9S164.9,3.5,109.3,3.5"/>
            </g>
            <g id="g5128">
              <path id="path5130" class="cls-3" d="M276.4,249.6c0-1.5-.8-2.2-2.2-2.2h-4.3v-8.6h10.1c4.5,0,6.4,1.9,6.4,6.4v39.2c0,10.6,6.7,17,17,17s17-6.3,17-17.1v-39.1c0-4.5,2-6.4,6.5-6.4h10v8.6h-4.3c-1.4,0-2.2.7-2.2,2.2v35.2c0,15.4-10.7,26-26.9,26s-27.1-10.5-27.1-26v-35.2Z"/>
            </g>
            <g id="g5132">
              <path id="path5134" class="cls-3" d="M343.7,301h4.3c1.4,0,2.2-.8,2.2-2.2v-60h9.1l31.5,44.9c2.6,3.8,5.9,9.6,5.9,9.6h.2s-.7-5.6-.7-9.6v-38.4c0-4.5,1.9-6.4,6.5-6.4h10v8.6h-4.3c-1.4,0-2.2.7-2.2,2.2v60h-9l-31.6-44.8c-2.6-3.8-5.8-9.6-5.8-9.6h-.2s.6,5.7.6,9.6v38.4c0,4.5-1.9,6.4-6.4,6.4h-10.1v-8.6Z"/>
            </g>
            <g id="g5136">
              <path id="path5138" class="cls-3" d="M423.8,301h6.9v-53.6h-6.9v-8.6h23.4v8.6h-6.9v53.6h6.9v8.6h-23.4v-8.6Z"/>
            </g>
            <g id="g5140">
              <path id="path5142" class="cls-3" d="M458.1,249.6c-.6-1.8-1.6-2.2-3.3-2.2h-1.4v-8.6h5.6c5,0,6.7,1.1,8.3,5.8l15.5,43.7c1.3,3.8,2.7,9.7,2.7,9.7h.2s1.3-5.9,2.7-9.7l15.5-43.7c1.7-4.7,3.3-5.8,8.3-5.8h5.6v8.6h-1.4c-1.8,0-2.7.4-3.3,2.2l-22.3,60h-10.6l-22.3-60Z"/>
            </g>
            <g id="g5144">
              <path id="path5146" class="cls-3" d="M530.3,247.4h-6.5v-8.6h41.7c4.5,0,6.4,1.9,6.4,6.4v8.9h-9.1v-4.5c0-1.5-.8-2.2-2.2-2.2h-20.2v22.2h24.8v8.6h-24.8v20.6c0,1.4.8,2.2,2.2,2.2h20.7c1.4,0,2.2-.8,2.2-2.2v-4.5h9.2v8.9c0,4.5-1.9,6.4-6.4,6.4h-31.5c-4.5,0-6.4-1.9-6.4-6.4v-55.8Z"/>
            </g>
            <g id="g5148">
              <path id="path5150" class="cls-3" d="M611.9,272.8c7.6,0,12.1-4.9,12.1-12.8s-4.5-12.5-11.9-12.5h-13.2v25.4h13.1ZM588.8,247.4h-6.5v-8.6h30.9c12.4,0,21.2,7.8,21.2,20.8s-7.7,17.7-12.7,18.8v.2s1.8.9,3,3.2l8.5,17c1,2.1,2.6,2.3,5,2.3h1.3v8.6h-4.9c-5.5,0-7.5-.7-9.8-5.3l-9.6-19.1c-1.8-3.3-3.1-3.8-7-3.8h-9.2v28.2h-10s0-62.2,0-62.2Z"/>
            </g>
            <g id="g5152">
              <path id="path5154" class="cls-3" d="M652.3,293.2s7.2,8.5,17.8,8.5,12.2-4,12.2-10.5c0-14.9-34.2-12.5-34.2-34.6s9.3-19,22.7-19,20.2,3.4,20.2,13v5.8h-9.2v-3.3c0-3.7-5.3-6.4-10.9-6.4s-12.4,4.2-12.4,9.5c0,14.4,34.1,11.1,34.1,34.4s-8.4,20.2-22.5,20.2-23.5-10.5-23.5-10.5l5.9-7.1Z"/>
            </g>
            <g id="g5156">
              <path id="path5158" class="cls-3" d="M702.9,301h6.9v-53.6h-6.9v-8.6h23.4v8.6h-6.9v53.6h6.9v8.6h-23.4v-8.6Z"/>
            </g>
            <g id="g5160">
              <path id="path5162" class="cls-3" d="M758.2,247.4h-14.3c-1.4,0-2.2.7-2.2,2.2v4.5h-8.9v-9.3c0-4.5,1.5-6,6-6h48.8c4.5,0,6,1.5,6,6v9.3h-8.9v-4.5c0-1.5-.8-2.2-2.2-2.2h-14.3v62.2h-10v-62.2Z"/>
            </g>
            <g id="g5164">
              <path id="path5166" class="cls-3" d="M822.2,278.7l-18-28.8c-1.3-2.1-2.2-2.5-4.3-2.5h-2v-8.6h4.6c4.8,0,6.7.7,9.5,5.4l10.7,17.9c2.3,3.9,4.3,7.9,4.3,7.9h.2s1.9-4,4.3-7.9l10.7-17.9c2.8-4.7,4.8-5.4,9.5-5.4h4.6v8.6h-1.9c-2.1,0-3.1.4-4.4,2.5l-17.9,28.8v30.9h-10v-30.9Z"/>
            </g>
          </g>
        </g>
      </g>
    </g>
  </g>
</svg>