<?xml version="1.0" encoding="UTF-8"?><svg id="a" xmlns="http://www.w3.org/2000/svg" viewBox="0 0 1024 1024"><path d="M686.89,442.67c0-.56-.06-1.14.55-1.47.04-.93,1.21,1.26,1.13-.43-.04-.94.16-1.94.29-2.92,1.59-4.44,3.26-8.86,4.76-13.33,9.77-28.98,15.24-58.65,14.28-89.34-.13-4.17-.35-8.33-.54-12.5,1.73.35,1.33,1.87,1.55,2.97,1.17,5.93.56,11.94.59,17.92.02,4.22,1.97,8,2.05,12.23,1.45-1.17,1.73-2.72,2.33-4.1.43-1,1.02-1.84,2.28-1.53,1.06.27,1.24,1.21,1.32,2.13.04.45-.04.9-.08,1.35-.44,4.63-.15,4.13,3.63,6.29,3.1,1.77,5.16,5.17,7.18,8.19.93,1.4-.81,3.45-.18,5.3,1.21.26,1.34-1.01,2.07-1.4,1.23-.67,2.65-.85,3.39.28,2.51,3.85,7.14,6.31,7.14,11.85,0,4.77,2.39,8.01,7.44,9,2.19.43,2.08,2.32,1.67,4.12-.97,4.23-.8,4.47,3.51,5.33.55.11,1.11.21,1.66.36,5.07,1.35,6.32.31,6.22,7.11-.03,2.25,1.16,3.5,3.12,4.74,3.15,1.99,6,4.54,7.74,8,.3.6.41,1.51,1.02,1.7,2.96.93,4.3,3.68,6.46,5.41,2.3,1.84,3.58,4.3,5.51,6.31,1.8,1.86.08,4.34.35,6.53-4.34,11.65-9.86,22.74-16.07,33.49-6.5,11.24-13.86,21.9-21.85,32.13-.62.79-1.38,1.47-2.08,2.2-1.2,1.35-2.5,2.6-3.84,3.8-.88.78-2.12.55-1.97-.51.3-2.19-.92-1.72-2.15-1.76-2.61-.08-3.94-1.53-3.84-4.12.11-2.95-.03-5.67-3.45-6.86-.62-.21-.9-.98-1.13-1.63-.22-.64-.25-1.55-.76-1.84-3.07-1.75-4.58-5.16-7.39-7.02-1.96-1.29-2.99-2.62-2.88-4.86.15-3.09-1.06-4.86-3.82-6.74-2.65-1.81-5.38-4.2-7.11-7.24-.33-.58-.45-1.49-1.02-1.71-3.16-1.23-4.72-4.31-7.31-6.13-1.56-1.1-2.33-2.28-2.51-4.09-.33-3.41-.56-6.91-5.12-7.5-.75-.1-1.58-.79-1.68-1.55-.38-2.86-1.92-5.33-2.47-8.12Z" style="fill:#999; stroke-width:0px;"/><path d="M686.89,442.67c1.47,1.98,3.24,3.74,2.81,6.63-.28,1.86,1.39,2.66,2.82,2.74,2.85.17,3.97,1.44,3.99,4.25.01,1.53.76,3.04.61,4.64-.02.22,0,.61.09.65,3.16,1.11,4.18,4.57,6.85,6.2.56.34,1.65.32,1.82.73,1.41,3.56,5.28,5.09,6.84,8.46.42.92.86,1.52,1.88,1.65,3.43.45,4.32,2.7,4.23,5.78-.07,2.4-.68,5.24,3.16,5.39,1.27,4.29,7.19,4.85,7.8,9.71.06.46.6,1.19.97,1.23,4.45.47,3.76,3.79,3.6,6.63-.15,2.66.68,3.83,3.51,4.05,1.81.14,1.85-1.14,2.37-2.17,2.32,1.93-1.2,3.3.07,5.07,1.94-.93,2.99-3.04,5.04-3.73-2.03,3.48-4.83,6.33-7.58,9.21-1.78-1-.65-2.67-.5-4.28-.99.61-.95,1.21-.9,1.72.31,3.52-2.38,5.63-3.86,8.31-6.79,8.09-14.44,15.33-22.29,22.35-14.18,12.69-29.35,24.06-45.71,33.82-1.46.13-3.11.49-3.73-1.34-.56-1.64.51-2.32,1.97-2.92,1.37-.56,1.08-2.38,1.91-3.46-1.04,1.28-.64,3.93-3.57,3.32-2.48-.52-2.89-2.22-2.84-4.28.08-3.22.31-6.46-3.94-7.42-.63-.14-.97-.91-1.23-1.55-.21-.52-.26-1.37-.65-1.52-3.72-1.36-4.59-5.88-8.19-7.33-1.13-.46-1.84-1.28-2.17-2.43-.41-1.41-1.23-2.38-2.68-2.78-2.08-.57-2.78-2.09-2.86-4.08-.06-1.47-.3-2.92-.77-4.32-.38-1.14-1.12-1.65-2.34-1.18-1.22.46-2.17,2.61-3.73.93-1.33-1.43-2.12-3.23-1.21-5.28,5.87-7.8,11.88-15.5,17.58-23.43,14.98-20.85,28.86-42.37,39.06-66.05.57-1.32.64-2.87,1.79-3.93Z" style="fill:#999; stroke-width:0px;"/><path d="M764.05,286.09c.75,1.11,1.93,1.69,3,2.4.52,1.54,1.52,2.59,3.11,3.04,13.78,13.45,21.97,30,26.45,48.48,1.41,5.81,2.65,11.72,2.98,17.75.75,7.96,1.45,15.93.59,23.93-.93,2.65-.15,5.47-.79,8.15-.45,2.33-.95,4.65-1.16,7.02-.06.58-.13,1.16-.19,1.73-.79.12-.94-.28-.82-.77.62,2.05-.1,4.2-.33,6.38.14.2.11.38-.09.53-2.68-.36-5.06-1.77-7.72-2.21-.32-.05-.73-.26-.84-.53-1.55-3.75-5.87-5.73-6.41-10.12-.26-2.12-1.53-3.11-3.61-3.36-1.67-.21-3.2-1.06-3.52-2.76-.7-3.71-3.23-6.73-3.8-10.46-.27-1.81-1.42-2.64-3.14-3.08-4.74-1.2-7.42-4.59-9.77-8.69-2.64-4.61-5.4-9.2-8.82-13.33-.22-.26-.45-.57-.76-.66-4.6-1.37-5.91-5.79-8.51-9.04-1.75-2.19-3.62-4.26-4.94-6.78-.58-1.1-1.33-2.1-1.4-3.39-.1-1.77-.84-3.01-2.65-3.47-1.51-.38-2.34-1.55-2.52-2.91-.52-3.97-2.86-5.77-6.53-7.05-3.89-1.36-6.24-4.62-7.33-8.7-.83-3.11-3.54-5.11-4.91-7.94-.43-.88-1.41-1.54-1.68-2.52-.98-3.54-3.2-6.12-6.05-8.28-2.7-8.57-5.01-17.26-8.47-25.57-.75-1.79-.04-2.18,1.6-2.11,14.02.55,27.66,2.74,40.73,8.18,9.13,3.8,17.83,8.27,25.77,14.18.72.81,1.03,2.16,2.53,1.97Z" style="fill:#999; stroke-width:0px;"/><path d="M387.91,582.36c7.65,4.77,15.52,9.15,23.42,13.51,12.5,6.9,25.68,12.12,39.3,16.32,19.58,6.03,39.59,9.61,60.04,11.09,7.49.54,15.04.02,23.07,1.27-9.67,6.13-19.21,11.38-29.09,15.99-16.78,7.84-34.06,14.34-52.09,18.7-23.33,5.65-46.88,7.95-70.79,4.42-.59-.48-1.85.13-1.97-.87-.11-.87.91-1.15,1.6-1.51,1.17-.61,2.72-.13,3.76-1.28-.81-1.61-2.36-1.6-3.75-1.88-.99-.2-2.03-.12-3.02-.35-1.17-.27-2.23-.78-2.27-2.13-.03-1.18.88-1.96,1.92-2.03,3.96-.28,4.14-2.86,4.13-5.97-.07-17.72-.04-35.44-.03-53.15,0-1.81,0-3.61-.49-5.38-.31-1.12-.42-2.24.35-3.23.8-1.04.81-1.99-.05-3.04-.76-.93-1.15-2.09-.16-3.05,1.09-1.07,1.91.16,2.57.72,1.08.91,2.39,1.22,3.57,1.85Z" style="fill:#999; stroke-width:0px;"/><path d="M494.99,186.32c14.21-5.76,28.89-9.83,44.04-12.2,3.65-.73,7.37-.71,11.06-.92,4.1-.23,5.56,1.2,5.67,5.31.15,5.52.03,11.05.05,16.57.06,22.54-.14,45.09.13,67.62-.62,1.68-2.07,1.83-3.57,1.88-1.85.06-3.72-.04-5.54.32,3.11.51,6.33,1.61,8.85-1.49,1.35-.88,2.79-.74,4.2-.27,1.1.36,2.1.98,1.99,2.35-.1,1.26-1.14,1.53-2.15,1.75-2.81.61-5.68.92-8.4,1.91-3.87.67-7.76,1.12-11.7,1.25-15.77.53-31.48-.16-47.14-1.99-.77-.09-1.6.04-2.18-.67,3.11-1.23,6.4-1,9.59-.88,2.7.1,5.4.12,7.69.2-4.34.46-9.07-1.26-13.87-.08-1.65.41-3.64-.05-3.81-2.29-.15-1.89,1.29-2.85,3.01-3.02,2.5-.24,3.15-1.71,3.15-3.92,0-18.05.01-36.1,0-54.15,0-2.08-.71-3.58-2.57-4.76-2.19-1.4-2.09-2.51-.02-4.14.44-.35.96-.59,1.4-.94,2.97-2.39,3.01-4.99.14-7.44Z" style="fill:#999; stroke-width:0px;"/><path d="M335.62,648.94c-8.39-3.93-16.13-8.84-23-15.1-6.27-5.7-12.43-11.51-17.4-18.45-.88-1.24-.91-2.32-.13-3.39,1.74-2.39,1.82-5.07,1.42-7.78-.48-3.26-.5-6.52-.5-9.79-.01-28.44,0-56.87,0-85.31,0-2.59.12-5.18-1.16-7.6-.72-1.35-.46-2.79.87-3.58,2.36-1.41,1.85-2.91.6-4.75-1.06-1.56,1-7.21,2.78-7.97,1.15-.49,1.93.19,2.71.86,4.22,6.48,8.41,12.98,12.66,19.44,6.93,10.55,14.55,20.57,22.81,30.11.51.59,1.18,1.09,1.05,2.01-1.18,1.5-2.69,2.75-3.6,4.78,2.55-.42,3.61.59,3.55,3.23-.54,23.8-.12,47.6-.24,71.39-.03,7.11,0,14.21-.01,21.32,0,2.12.33,4.02,2.17,5.4.7.52,1.53,1.19.88,2.24-.53.87-1.5.9-2.41.9-1.54,0-2.72-1-4.26-1.65.54,1.31,2.34,2.09,1.21,3.7Z" style="fill:#999; stroke-width:0px;"/><path d="M585.22,172.05c6.7.32,13.18,1.87,19.74,3.17,10.94,2.17,21.18,6.15,30.99,11.19,10.53,5.41,19.93,12.41,28.44,20.81,9.93,9.79,17.52,21.08,24.06,33.21.53.99.98,2.04,1.33,3.1,1.39,4.24-1.29,7.91-5.71,8.03-5.22.14-10.24-1.31-15.42-1.7-10.19-.77-20.24.05-30.32,1.19-12.7,1.44-25.01,4.54-37.17,8.34-.74.23-1.55.23-2.33.34.43-2.27-.2-3.59-2.82-3.49-.75.03-1.55-.47-1.55-1.47,0-.9.59-1.66,1.34-1.76,4.86-.64,4.13-3.94,4.09-7.46-.19-17.14-.08-34.28-.09-51.41,0-1.92.1-3.84-.27-5.74-.53-2.68-.22-4.96,1.75-7.19,2.18-2.47,1.19-3.94-1.95-4.79-4.21-1.13-8.79-.53-12.75-2.77-.65-.37-1.59-.48-1.36-1.59Z" style="fill:#999; stroke-width:0px;"/><path d="M494.99,186.32c1.15.37,3.04-.72,3.33,1.32.35,2.41-.08,4.75-1.99,6.51-.55.51-1.34.77-2.03,1.12-.77.4-1.89.52-1.84,1.68.05,1.04,1.12,1.04,1.81,1.21,2.36.58,2.8,2.22,2.8,4.34-.03,18.86-.03,37.71,0,56.57,0,2.69-.99,4.03-3.89,3.4-1.5-.33-2.49.62-2.71,1.91-.26,1.52,1.2,1.67,2.26,1.93.53.13,1.22.23,1.67,0,5.59-2.71,11.1,1.31,16.67.18.13-.03.32.24.44,1.22h-21.21s-.02,0-.02,0c-4.92-1.28-9.93-2.1-14.98-2.66-7.84-.97-15.43-3.1-22.99-5.27-9.96-2.86-19.84-5.98-30.09-7.67-8.89-1.47-17.86-2.33-26.81-3.25-.53-.05-1.05-.16-1.86-.28,1.03-1.98,2.6-3.09,4-4.32,23.74-20.9,50.18-37.61,78.94-50.69.5-.23,1.08-.29,1.62-.43,2.3-.75,4.68-1.32,6.66-2.81l.03.02c1.83-.59,3.69-.84,5.6-.59,2.51.33,3.78-.85,3.98-3.31.18-.13.38-.18.61-.14Z" style="fill:#999; stroke-width:0px;"/><path d="M335.62,648.94c0-1.46-.83-2.3-2.11-2.72-.9-.3-2.42-.16-1.51-1.73.64-1.09,1.88-1.16,2.97-.39,1.71,1.2,3.25,2.93,6.42,1.23-5.01-1.27-4.4-4.89-4.39-8.35.03-29.04.02-58.07.02-87.11,0-.79.16-1.62-.03-2.36-.36-1.44,1.46-3.01.1-4.12-1.33-1.08-2.73.13-4.01.83-.23.13-.71.05-.92-.13-.18-.14-.2-.81-.17-.82,2.69-.83,2.4-4.24,4.68-5.37.47-.24,1.09-.18,1.65-.26,7.73,7.79,14.92,16.11,23.11,23.46,7.94,7.13,16.15,13.92,24.98,19.93.55.37,1,.88,1.5,1.33-1.64.19-3.11-.02-4.26-1.41-.35-.42-.87-1.39-1.56-.6-.56.64-.41,1.52.53,1.94,2.83,1.27,2.15,2.74.17,4.13-.7.49-.97.9-.54,1.6,1.4,2.3.86,4.84.87,7.29.04,18.18-.05,36.36.09,54.54.02,3.21-.92,4.67-4.18,4.44-1-.07-2.34-.06-2.33,1.29.02,1.6,1.51,1.42,2.59,1.37,2.2-.11,4.25.31,6.23,1.23.99.46,1.76,1.08,1.6,2.3-.19,1.5-1.4,1.23-2.36,1.22-1.55-.02-3.03.14-4.4,1.02.52.34.96.64,1.41.94-6.88-.43-13.52-2.11-20.08-4.04-9.04-2.65-17.91-5.8-26.06-10.68Z" style="fill:#999; stroke-width:0px;"/><path d="M330.32,377.71c-4.18,9.96-8.54,19.85-12.14,30.06-5.74,16.28-10.47,32.83-13.91,49.75-.36,1.77-.86,3.5-1.42,5.79-3.62-5.38-6.13-10.87-8.61-16.36-11.38-25.23-17.97-51.48-16.85-79.36.51-12.71,2.93-25.08,7.36-37,2.06-5.54,4.09-11.14,7.58-16.03,1.81-.83,1.92-2.68,2.54-4.23-.04-.22.03-.38.22-.5,4.56-.33,4.92.03,4.09,4.51-.18.94-.23,1.64.87,1.67,2.18.06,2.12,1.76,2.77,3.19,1.44,3.17,1.36,7.2,4.94,9.24.28.16.5.49.59.81,1.69,5.84,5.04,10.96,7.08,16.64.34.95.41,2.1,1.31,2.67,3.06,1.95,3.68,5.27,4.67,8.32.46,1.41.98,2.67,1.8,3.92,1.48,2.24,2.68,4.69,3.16,7.38.33,1.85.93,3.33,2.87,4.21,1.48.67,2.42,2.04,1.74,3.9v.03c-.37.39-1.97.18-.68,1.38Z" style="fill:#999; stroke-width:0px;"/><path d="M585.22,172.05c2.56,1.41,5.14,2.32,8.22,2.22,2.95-.1,5.72,1.55,8.84,1.43,1.73-.07,2.07,5.08.04,6.29-2.77,1.66-2.34,3.67-1.78,6.07.28,1.19.25,2.46.26,3.69.01,17.85,0,35.7.01,53.54,0,.9-.31,1.97.06,2.68,2.25,4.31-.74,4.89-3.76,5.48-.88.17-2.13.16-2.01,1.3.13,1.24,1.44.66,2.25.78.55.08,1.13-.01,1.69.02.86.06,1.95-.26,2.28.93.39,1.43-.67,1.66-1.71,1.91-.66.15-.75.76-.79,1.34-6.44,2.79-13.32,4.02-20.12,5.49-9.03,1.96-18.1,3.72-27.39,3.94,1.92-2.19,4.72-2.09,7.23-2.75.96-.25,2.66.59,2.68-1.04.02-1.48-1.61-1.57-2.83-1.65-1-.06-2.01-.02-3.01-.02-.84-3.31-.68-6.69-.68-10.06,0-24.81,0-49.61,0-74.42,0-4.96-.07-5.02-5.18-5.03-3.5,0-6.99-.03-10.49-.04,5.15-1.74,10.57-2.12,15.89-2.49,9.44-.65,18.93-.4,28.39-.06.64.02,1.28.31,1.92.48Z" style="fill:#999; stroke-width:0px;"/><path d="M628.47,536.08c.65.77.27,2.45.51,2.46,1.22.03.73,6.11,3.4.97.76-1.47,3.81-.52,4.29,1.2.3,1.08.64,2.19.65,3.29,0,2.81.47,4.33,3.71,5.87,2.33,1.1,4.66,4.36,6.78,6.74,1.28,1.43,2.67,2.58,3.83,3.85,2.29,2.51,4.64,4.81,7.17,7.09.98.88.38,3.66.29,5.57-.09,1.93.23,3.21,2.53,3.46,2.62.28,1.17-1.86,1.77-2.76.47-.71.55-1.68.82-2.57,2.08,2.31,1.87,4.16-.67,6.65q-2.57,2.52.97,3.81c-4.75,3.17-9.96,5.58-14.8,8.5-8.84,5.32-18.15,9.52-27.6,13.4-22.3,9.17-45.38,14.91-69.66,14.89-1.47,0-2.94-.07-4.41-.06-2.57.02-4.05-1.41-4.52-3.74-.43-2.16.46-4.02,2.39-5.15,10.25-5.96,19.99-12.63,29.22-20.07,12.32-9.92,23.82-20.71,34.56-32.31,4.97-5.37,9.87-10.79,14.8-16.19.77.07.87.91,1.39,1.35.39-1.06-.62-1.38-.81-2.06.85-1.62,1.88-3.1,3.4-4.18Z" style="fill:#999; stroke-width:0px;"/><path d="M301.8,486.07c-2.02-.66-3.63-.68-3.45,2.17.02.33.03.9-.12.97-4.43,1.93-.43,3.52.23,5.17.78,1.96,1.06,3.49-1.68,3.97-1.77.31-2.41,1.55-1.1,2.89,1.49,1.52,1.33,3.24,1.33,5.03,0,30.37.04,60.74-.06,91.12,0,3.07.81,6.01.76,9.06-.03,2.28.2,4.54-2,6.1-.56.4-1.02,1.3-.51,1.78,3.91,3.78,5.98,9.73,10.46,12.14,3.59,1.94,4.46,5.15,6.95,7.37-4.35-2.29-7.71-5.78-10.92-9.36-11.51-12.86-20.34-27.46-26.53-43.5-5.64-14.61-9.09-29.78-10.21-45.54-.78-10.96-.64-21.88.35-32.73,1.12-12.29,3.64-24.42,7.2-36.29.77-2.58,1.38-5.21,2.24-7.76.85-2.54,2.66-4.11,5.39-4.46,2.71-.35,5.02.42,6.31,2.91,3.37,6.45,6.6,12.97,9.89,19.46-1.16,2.76,1.28,3.47,2.7,4.76,1.45,1.27,2.15,2.97,2.75,4.72Z" style="fill:#999; stroke-width:0px;"/><path d="M466.33,780.03c15.04-20.39,44.62-15.83,52.51,3.09,2.11-3.08,4.18-5.98,6.92-8.29,9.93-8.37,21.29-10.31,33.32-6.29,11.13,3.72,15.56,13.02,17.3,23.9.5,3.13.65,6.28.64,9.46-.04,15.37-.08,30.74.04,46.11.02,2.39-.62,3.15-2.99,2.95-3.13-.26-7.24.96-9.16-.61-2.03-1.67-.6-5.93-.62-9.05-.08-13.11-.02-26.22-.07-39.33,0-2.25-.18-4.52-.55-6.74-2.72-16.15-18.79-22.6-32.02-12.76-7.33,5.45-9.66,13.33-9.69,22.07-.04,14.13-.1,28.26.1,42.38.04,3.22-.66,4.47-4.02,4.05-2.77-.35-6.54.87-8.16-.55-1.91-1.67-.6-5.51-.61-8.4-.07-13.11-.06-26.22-.02-39.33,0-2.96-.21-5.89-.82-8.76-3.26-15.33-20.02-21-32.34-10.91-7.04,5.77-9.19,13.69-9.23,22.38-.06,14.13-.08,28.25.03,42.38.02,2.41-.4,3.47-3.11,3.19-3.01-.32-7.08.99-8.83-.53-2.04-1.77-.64-5.93-.65-9.04-.06-21.13-.04-42.27-.03-63.4,0-5.72,3.63-9.47,9.03-9.72,2.27-.1,3.29.43,3.1,2.93-.21,2.75-.05,5.53-.05,8.82Z" style="fill:#999; stroke-width:0px;"/><path d="M701.9,289.44c2.83.83,4.76,2.34,5.81,5.37,1.34,3.83,3.75,7.16,6.55,10.14.55.59,1.03,1.16,1.13,2.01.7,5.95,4.44,9.04,9.95,10.24,2.03.44,2.61,1.5,3.05,3.39.56,2.38.29,5.67,4.25,5.75.74.02,1.66.95,1.52,1.62-.69,3.44,1.85,5.74,3.26,8.12,1.36,2.31,3.47,4.39,5.17,6.65.8,1.07,2,1.81,2.06,3.35.01.4.34,1.09.6,1.12,3.62.49,5.08,3.38,7.19,5.8,1.14,1.3,2.36,2.15,2.4,4.02,0,.53.23,1.28.61,1.53,3.55,2.34,3.76,6.98,6.79,9.7,1.91,1.71,4.01,2.88,6.5,3.23,1.86.26,2.85,1.17,2.95,3.04.22,4.12,3.48,7.17,3.9,11.28.16,1.6,1.97,1.99,3.53,1.97,2.2-.02,3.22,1.03,3.47,3.24.29,2.63,2.3,4.4,3.53,6.52,2.24,3.87,5.54,4.83,9.15,5.94.58.18,1.02.83,1.53,1.26-1.36,9.53-4.35,18.63-7.41,27.69-1.18,3.5-2.2,7.08-4.04,10.33-.21-.25-.67-.61-.61-.75,1.65-4.02-2.21-6.13-3.21-9.22-.18-.56-.9-.97-1.43-1.37-.25-.19-.64-.25-.97-.24-3.27.06-.74-4.83-4.12-4.76-2.83.06-4.01-1.6-4.05-4.3-.01-.87-.54-1.46-1.39-1.71-.22-.06-.48-.06-.65-.19-2.57-1.98-4.35-4.73-7.57-6.2-2.04-.93-1.19-4.11-1.16-6.33.03-1.8-.2-2.94-2.45-3.09-2.1-.14-4.1-1.07-6.25-1.28-3.36-.32-4.56-2.43-2.97-5.45,1.38-2.63,1.02-3.53-2.04-4.28-3.19-.78-6.34-2.15-6.27-6.71.04-2.61-.7-5.46-1.88-7.8-1.37-2.72-5.06-3.55-6.32-6.75-.24-.61-2.1.2-2.32,1.59-.17,1.03-.54,1.75-1.72,1.54-1.19-.2-1.3-1.33-1.26-2.11.06-1.32.58-2.62.79-3.94.24-1.53.27-3.17-1.83-3.27-2.11-.09-2.72-1.31-2.79-3.06-.07-1.81-.99-2.63-2.75-2.7-3.69-.13-4.2-.87-4.1-4.69.04-1.65,2.07-4.21-.1-4.75-1.99-.5-1.24,2.77-2.19,4.15-.67.96-1.07,2.11-1.68,3.36-1.41-1.84-1.69-3.78-2.21-5.83-2.41-9.6-.17-19.46-1.99-29.06-.06-.31-.33-.57-.5-.86-1.12-11.2-3.16-22.24-5.48-33.24Z" style="fill:#999; stroke-width:0px;"/><path d="M649.9,784.1c-3.55,10.74-6.95,20.99-10.33,31.26-3.56,10.82-7.17,21.61-10.58,32.48-.78,2.49-1.91,3.39-4.5,3.14-3.13-.3-6.98.88-9.25-.57-2.45-1.56-2.59-5.75-3.67-8.8-8.31-23.36-16.53-46.76-24.94-70.08-1.08-2.98-.27-3.46,2.39-3.23,3.45.3,7.74-1.38,10.15.7,2.22,1.92,2.55,6.07,3.61,9.26,6.23,18.71,12.42,37.43,18.9,56.96,1.9-5.72,3.61-10.76,5.26-15.83,4.69-14.36,9.36-28.72,14.05-43.08,2.19-6.72,8.23-9.88,14.96-7.97,1.52.43,1.35,1.71,1.66,2.65,5.96,18.33,11.85,36.68,17.75,55.03.9,2.78,1.8,5.56,2.96,9.18,1.04-2.92,1.84-5.11,2.61-7.31,6.56-18.84,13.15-37.67,19.61-56.55.78-2.28,1.76-3.33,4.27-3.08,2.46.25,4.97.18,7.45.03,2.17-.13,2.16.81,1.58,2.4-9.49,26.05-18.98,52.11-28.43,78.17-.52,1.43-1.15,2.19-2.86,2.11-3.49-.17-7.63,1.05-10.32-.44-2.72-1.51-2.6-6.12-3.66-9.38-5.8-17.78-11.53-35.59-17.3-53.39-.34-1.06-.78-2.1-1.36-3.66Z" style="fill:#999; stroke-width:0px;"/><path d="M331,376.29c-.76-1.47-.54-3.63-3.51-3.26-.93.12-1.7-2.63-1.95-4.27-.48-3.13-1.87-5.73-3.77-8.26-1.73-2.31-1.25-5.61-2.94-8.07-.3-.43-.18-1.41-.49-1.53-4.53-1.83-3.45-6.92-5.81-9.88-2.74-3.43-3.13-7.67-4.77-11.45-.36-.82-1.13-1.07-1.81-1.42-1.42-.74-2.17-1.79-2.18-3.48,0-2.6-2.69-4.46-2.15-7.28.03-.14-.51-.58-.71-.54-4.74.92-3.6-.99-2.06-3.75.71-1.27.49-3.48-2.15-2.57-1.03.36-1.07-.49-1.6-.71,7.77-13.66,19.43-23.26,32.63-31.24,1.24-.75,2.56-1.37,3.84-2.04,1.62-.72,3-.09,3.84,1.17.92,1.39-1.16,1.62-1.49,3.09,4.42,1.57,5.43,6.06,7.37,9.75,4.24,8.07,8.3,16.23,12.08,24.53,1.66,3.65,4.64,6.68,5.05,10.94.08.89,1.25.86,1.78,1.43-6.33,9.42-12.92,18.68-18.4,28.65-3.67,6.69-7.2,13.45-10.8,20.19Z" style="fill:#999; stroke-width:0px;"/><path d="M939.28,850.77c-.91.09-1.24.15-1.56.15-16.92-.08-12.86,1.56-23.81-10.62-7.93-8.81-15.72-17.74-23.58-26.62-.3-.34-.68-.62-.91-1-.93-1.5-2.41-1.14-3.65-.89-1.45.29-.75,1.68-.76,2.57-.05,11.07-.11,22.14.02,33.21.03,2.48-.31,3.79-3.21,3.4-3.09-.42-7.25,1.35-9.04-.7-1.54-1.76-.54-5.79-.54-8.82-.02-33.21-.01-66.42,0-99.63,0-10.51,1.93-12.68,12.74-14.13,0,1.15,0,2.26,0,3.37,0,21.91-.01,43.83.04,65.74,0,1.13-.78,2.8.57,3.34,1.58.63,3.17.14,4.55-1.27,8.36-8.57,16.93-16.94,25.15-25.63,3.38-3.57,7.02-5.39,11.93-4.97,2.78.24,5.59.04,8.72.04-.56,1.65-1.76,2.48-2.72,3.45-10.22,10.38-20.36,20.84-30.76,31.04-2.57,2.52-2.26,3.8-.01,6.29,11.59,12.8,22.96,25.8,34.39,38.74.73.83,1.41,1.7,2.44,2.94Z" style="fill:#999; stroke-width:0px;"/><path d="M360.2,327.46c-1.72.55-3.32.68-2.79-1.87.54-2.62-1.4-4.25-2.45-6.03-2.53-4.31-4.73-8.77-6.69-13.32-2.97-6.92-7.33-13.12-10.05-20.17-1.05-2.72-3.43-4.34-6.8-5.14,1.46-1.07,2.56-1.88,3.7-2.71-1-.92-2.21-1.44-3.55-1.68,9.28-5.57,19.46-8.84,29.9-11.32,17.34-4.11,34.9-4.05,52.52-2.31.67.07,1.34.17,2.01.3,2.29.46,3.99,1.66,4.41,4.07.43,2.44-.88,4.13-2.84,5.32-7.43,4.54-14.12,10.04-20.71,15.66-12.76,10.87-23.97,23.21-34.16,36.5-.74.96-1.26,2.16-2.49,2.69Z" style="fill:#999; stroke-width:0px;"/><path d="M286.12,780.47c11.32-13.36,25.15-15.8,40.29-12.59,12.92,2.75,21.4,13.6,22.1,27.86.87,17.72.16,35.48.36,53.21.02,1.79-.72,2.04-2.19,1.98-3.36-.13-7.66,1.06-9.83-.59-2.08-1.58-.58-6.12-.6-9.35-.08-11.98,0-23.96-.04-35.94,0-2.25-.13-4.52-.37-6.76-1.63-14.68-12.12-22.41-26.61-19.65-13.16,2.5-21.05,11.96-21.1,25.47-.06,14.47-.12,28.93.06,43.4.04,2.94-.85,3.72-3.57,3.45-2.13-.21-4.31-.21-6.43,0-2.43.25-2.95-.64-2.94-2.98.1-20.57.06-41.14.06-61.7,0-3.16-.09-6.33.06-9.49.22-4.53,3.88-8.17,8.19-8.48,1.74-.12,2.75.18,2.63,2.32-.17,2.98-.04,5.99-.04,9.84Z" style="fill:#999; stroke-width:0px;"/><path d="M973.29,852.6c-7.71.18-17.08-3.24-25.69-9.15-1.3-.89-1.8-1.54-.56-2.82.62-.64,1.05-1.46,1.59-2.19,2.66-3.57,4.08-3.99,7.98-1.87,8.25,4.48,16.93,6.1,26.16,4.12,1.64-.35,3.27-.89,4.8-1.58,4.11-1.87,6.72-4.96,6.92-9.62.2-4.67-2.19-7.89-6.13-10.11-5.67-3.21-12.08-4.3-18.13-6.4-2.76-.96-5.55-1.91-8.21-3.14-8.8-4.08-13.25-10.89-12.67-20.74.56-9.55,5.31-16.28,14.16-19.61,13.65-5.13,26.82-3.31,39.39,3.81,1.49.84,1.7,1.53.81,3.11-3.29,5.79-4.25,6.21-10.42,3.87-7.47-2.83-15.07-3.86-22.85-1.33-4.92,1.6-8.28,4.68-8.63,10.1-.34,5.31,2.69,8.63,7.12,10.9,5.66,2.91,11.92,4.11,17.9,6.11,2.78.93,5.53,1.93,8.16,3.24,7.58,3.8,12.04,9.55,12.15,18.36.12,9.23-3.68,16.08-11.73,20.57-5.99,3.34-12.54,4.24-22.11,4.35Z" style="fill:#999; stroke-width:0px;"/><path d="M56.03,836.58c3.6-9.21,7-17.9,10.38-26.6,4.29-11.03,8.55-22.07,12.87-33.09,2.91-7.43,4.63-8.58,12.58-8.58,1.1,0,2.21,0,3.78,0-3.18,7.85-6.2,15.35-9.24,22.84-7.57,18.71-15.2,37.39-22.64,56.14-1.12,2.83-2.48,4.07-5.6,3.7-3.01-.36-6.81.89-8.91-.55-2.1-1.43-2.58-5.3-3.69-8.13-9.17-23.53-18.32-47.06-27.47-70.59-.4-1.02-.74-2.06-1.22-3.41,2.87,0,5.45-.2,7.99.04,4.25.4,6.82,2.89,8.3,6.89,6.97,18.94,14.05,37.83,21.09,56.74.5,1.35,1.04,2.68,1.79,4.59Z" style="fill:#999; stroke-width:0px;"/><path d="M226.18,789.03c0-12.54-.03-25.07.01-37.61.02-6.6,4.79-10.92,11.38-10.67,1.93.07,1.15,1.35,1.15,2.12.06,7.57.13,15.14,0,22.7-.04,2.25.61,2.86,2.82,2.79,5.53-.16,11.07.03,16.6-.09,1.97-.04,2.43.62,2.46,2.51.09,6.93-1.43,8.58-8.43,8.63-3.73.03-7.45.02-11.18,0-1.17,0-2.25-.1-2.23,1.65.2,14.34-.7,28.71.42,43.01.84,10.6,4.76,14.61,15.13,17.11,2.91.7,3.41,1.61,2.88,4.46-1.43,7.54-1.26,7.57-8.92,5.96-14.24-2.99-22.05-12.52-22.09-27-.03-11.86,0-23.72,0-35.58h.01Z" style="fill:#999; stroke-width:0px;"/><path d="M814.58,823.71c0-8.58-.79-17.25.16-25.72,2.39-21.42,23.01-35.35,44.1-30.46.54.12,1.45.25,1.52.53.66,2.84-.17,5.58-1.04,8.2-.67,2.02-2.53,2.75-4.65,2.64-15.58-.82-24.09,5.98-26.77,21.27-.63,3.58-.82,7.17-.82,10.78-.01,12.19-.07,24.39.05,36.58.02,2.52-.42,3.74-3.29,3.43-3-.32-6.97.91-8.82-.61-1.95-1.6-.55-5.7-.6-8.71-.1-5.98-.03-11.97-.03-17.95.06,0,.13,0,.19,0Z" style="fill:#999; stroke-width:0px;"/><path d="M120.9,809.93c0,12.75-.06,25.5.06,38.25.02,2.25-.58,2.93-2.79,2.78-3.13-.22-7.31,1.04-9.15-.54-2.13-1.83-.67-6.13-.68-9.34-.06-22-.03-44-.03-66.01,0-5.59,1.18-6.76,6.72-6.77q5.87,0,5.87,5.74c0,11.96,0,23.92,0,35.88Z" style="fill:#999; stroke-width:0px;"/><path d="M123.52,749.5c0,4.99-4.05,9.04-9.01,9.01-4.77-.03-8.74-4.05-8.8-8.91-.06-5.02,3.85-9.04,8.86-9.12,4.94-.07,8.95,3.97,8.95,9.02Z" style="fill:#999; stroke-width:0px;"/><path d="M732.5,525.53c-.06-.77-2.2-1.58.38-2.3,3.21-.9,2.2-4.16,2.49-6.44.14-1.11.28-1.89,1.14-2.48.52-.36,1.08-.23,1.47.29.6.81.75,1.78-.02,2.43-1.12.94-.26,1.83-.2,2.75-1.57,2.08-3.23,4.09-5.26,5.75Z" style="fill:#999; stroke-width:0px;"/><path d="M494.38,186.46c1.09.72,1.05,1.64.28,2.51-.86.97-1.62,2.49-3.21,1.93-2.21-.77-4.46-.22-6.66-.55,3.02-1.74,6.22-3.01,9.59-3.89Z" style="fill:#999; stroke-width:0px;"/><path d="M475.3,265.07c4.87-1.45,9.29,1.61,14.05,1.43.62-.02.83.65.93,1.23-5.08-.38-10.13-.97-14.98-2.66Z" style="fill:#999; stroke-width:0px;"/><path d="M800.18,381.68c.14-7.98-.15-15.96-.59-23.93,1.39,7.95,1.71,15.92.59,23.93Z" style="fill:#999; stroke-width:0px;"/><path d="M299.05,481.35c-2.13.36-3.12-1.47-4.29-2.58-.5-.48.96-1.47,1.59-2.18,1.05,1.5,2.18,2.96,2.7,4.76Z" style="fill:#999; stroke-width:0px;"/><path d="M484.77,190.34c-1.49,2.67-4.01,2.89-6.66,2.81,2.04-1.37,4.22-2.39,6.66-2.81Z" style="fill:#999; stroke-width:0px;"/><path d="M625.07,540.26c.72.18,1.8-.17,1.99.85.28,1.49-1.04,2.07-2.1,3.03-.28-1.14.42-2.32-.47-3.18.19-.24.39-.47.58-.71Z" style="fill:#999; stroke-width:0px;"/><path d="M796.88,404.2v-6.94c.89.03.48,1.15,1.15,1.33.04,1.96-.31,3.84-1.15,5.62Z" style="fill:#999; stroke-width:0px;"/><path d="M294.87,310.32c.13,1.99.6,4.19-2.54,4.23.54-1.59,1.34-3.03,2.54-4.23Z" style="fill:#999; stroke-width:0px;"/><path d="M770.16,291.53c-1.91.96-2.4.48-3.11-3.04,1.2.84,2.47,1.63,3.11,3.04Z" style="fill:#999; stroke-width:0px;"/><path d="M688.86,437.86c.81,1.07.68,2.11.27,3.36-.72,2.17-1.14-.22-1.68-.02.22-1.22.55-2.4,1.42-3.35Z" style="fill:#999; stroke-width:0px;"/><path d="M330.32,377.71c-1.01-1.03-1.1,1.57-1.93.52-.32-.4-.29-1.4,0-1.89.75-1.31,1.73.14,2.61-.02.05.6-.17,1.06-.68,1.38Z" style="fill:#999; stroke-width:0px;"/><path d="M798.23,396.85c-.27-2.45.01-4.81,1.16-7.02.07,2.42-.28,4.76-1.16,7.02Z" style="fill:#999; stroke-width:0px;"/><path d="M764.05,286.09c-3.47,2.74-1.63-1.39-2.53-1.97,1.22.17,1.97.95,2.53,1.97Z" style="fill:#999; stroke-width:0px;"/><path d="M543.64,263.67c3.95,0,7.17-.03,10.39.04.42,0,1.44-.7,1.34.63-.06.77,0,1.53-.93,1.94-2.11.92-8.51-.28-10.79-2.61Z" style="fill:#999; stroke-width:0px;"/><path d="M295.04,601.82c-.95-.08-1.3-.74-1.36-1.56-.07-.92.11-1.87,1.23-1.99.98-.11,1.31.7,1.38,1.51.08.93-.14,1.76-1.24,2.04Z" style="fill:#999; stroke-width:0px;"/><path d="M435.66,840.38c-1.19-.79-1.58-2.68-1.72-4.29-.19-2.36-.51-4.72-.52-7.09-.05-11.75.04-23.5-.03-35.26-.08-13.32-7.07-22.22-19.9-25.51-7.22-1.85-14.55-1.87-21.88-1.08-7.12.76-13.99,2.53-20.27,6.14-.79.45-1.99.6-1.92,2.03.22,4.98,4.47,7.82,9.18,6.06,7.5-2.8,15.23-4.15,23.24-3.59,10.17.71,16.7,5.46,18.46,13.47.81,3.67.67,7.4.7,11.13.02,1.78-.76,1.67-2.08,1.42-2.88-.55-5.78-1.05-8.69-1.39-11.2-1.31-22.34-1.5-32.99,3.06-10.56,4.51-15.79,13.3-15.09,25.11.58,9.78,6.83,17.55,17.52,20.31,15.93,4.12,30.14,1.02,41.84-11.78,1.08,8.7,3.94,11.52,12.58,13.05,2.41.43,3.35-.07,3.67-2.62.43-3.39,1.68-6.66-2.11-9.17ZM404.48,839.61c-6.49,2.4-13.12,3.23-19.87,1.13-6.3-1.96-9.74-6.24-10.11-12.48-.35-5.82,2.75-10.73,8.46-13.4,5.68-2.66,11.76-2.87,16.91-2.99,6.94.21,12.87.89,18.77,1.92,1.72.3,2.34.98,2.39,2.83.3,11.45-4.75,18.63-16.54,22.99Z" style="fill:#999; stroke-width:0px;"/><path d="M150.62,813.61c9.37.17,18.75.07,28.13.07,7.91,0,15.83-.29,23.72.07,12.42.55,12.34-3.44,11.04-12.73-2.01-14.37-8.87-25.71-22.72-31.26-14.18-5.69-28.15-4.3-40.32,5.24-14.51,11.36-17.74,27.15-15.05,44.46,2.19,14.08,9.92,24.5,23.29,29.72,15.73,6.15,31.01,4.3,45.36-4.61,3.72-2.31,3.64-2.43,1.02-6.12-.59-.83-1.26-1.61-1.74-2.49-1.08-1.98-2.12-2.23-4.2-.91-7.24,4.57-15.21,6.66-23.81,6.39-14.56-.45-25.73-10.4-27.57-24.52-.32-2.49.12-3.34,2.85-3.29ZM147.91,801.75c4.17-23.43,27.75-28.77,41.41-20.04,7.38,4.72,10.73,11.87,11.93,20.28.31,2.17-1.14,1.75-2.29,1.75-8.24.02-16.48,0-24.71,0-8.01,0-16.03-.01-24.04.01-1.42,0-2.7.24-2.29-2.02Z" style="fill:#999; stroke-width:0px;"/><path d="M759.8,766.74c-24.58,0-42.3,18.05-42.31,43.09,0,24.83,17.75,42.81,42.23,42.77,24.4-.05,42.42-18.39,42.41-43.18-.02-24.84-17.7-42.67-42.33-42.67ZM777.24,835.25c-9.15,7.09-19.56,8.08-30,3.28-10.7-4.92-15.59-14.16-16.8-25.56-.12-1.11-.02-2.25-.02-3.38-.18-15.52,8.77-27.5,22.79-30.68,16.93-3.84,32.94,7.05,35.41,24.24,1.82,12.64-.89,23.97-11.39,32.11Z" style="fill:#999; stroke-width:0px;"/></svg>
