<?xml version="1.0" encoding="UTF-8"?>
<svg id="Layer_1" data-name="Layer 1" xmlns="http://www.w3.org/2000/svg" xmlns:xlink="http://www.w3.org/1999/xlink" version="1.1" viewBox="0 0 144 58">
  <defs>
    <style>
      .cls-1 {
        clip-path: url(#clippath);
      }

      .cls-2 {
        fill: none;
      }

      .cls-2, .cls-3 {
        stroke-width: 0px;
      }

      .cls-3 {
        fill: #999;
        fill-rule: evenodd;
      }
    </style>
    <clipPath id="clippath">
      <rect class="cls-2" width="144" height="58"/>
    </clipPath>
  </defs>
  <g class="cls-1">
    <g>
      <path class="cls-3" d="M43,0v25.4c0,18-14.4,32.6-32.2,32.6H0V0h10.8v47.3c11.9,0,21.6-9.8,21.6-21.8h0V0h10.6Z"/>
      <path class="cls-3" d="M94,16.3v41.7h-11V16.3c0-3-2.4-5.4-5.5-5.4h-16.5v47.1h-11V0h27.5c1.9,0,3.8.3,5.5.9,4.6,1.7,8.3,5.3,9.9,9.9.7,1.7,1,3.6,1.1,5.4Z"/>
      <path class="cls-3" d="M118.9,34.5h14.3v7.3c0,3-2.4,5.5-5.4,5.5h-10.7c-2.9,0-5.3-2.4-5.4-5.3v-25.6c0-3,2.4-5.4,5.4-5.4h19.7V0h-19.7c-1.8,0-3.6.3-5.4.9-4.6,1.7-8.2,5.3-9.9,9.9-.6,1.8-.9,3.6-.9,5.5v25.3c0,1.9.3,3.7.9,5.5,1.6,4.7,5.3,8.3,9.9,9.9,1.7.6,3.5.9,5.4.9h10.8c1.8,0,3.6-.3,5.4-.9,4.6-1.6,8.2-5.3,9.9-9.9.6-1.7.9-3.5.9-5.4v-18.1h-25.1v10.9Z"/>
    </g>
  </g>
</svg>
