<?xml version="1.0" encoding="UTF-8"?><svg id="a" xmlns="http://www.w3.org/2000/svg" viewBox="0 0 923.58 652.9"><path d="M415.97,416.6c-46.07,55.26-91.36,107.89-158.88,133.85-60.98,23.44-129.69-3.99-158.64-62.49-5.27-10.64-11.38-19.31-25.02-14.07-11.06,4.25-13.55,14.28-6.91,29.05,28.83,64.09,114.36,109.77,194.3,82.93,40.25-13.52,74.29-37.04,105.6-64.88,30.08-26.75,56.96-56.58,81.41-88.49,5.1-6.66,9.67-8.52,17.35-5.6,13.42,5.09,27.04,9.63,40.63,14.27,6.15,2.1,7.73,4.97,3.36,10.65-54.72,71.24-114.15,137.31-196.84,177.51-105.76,51.41-227.75,16.55-290.07-83.04-19.07-30.47-27.72-63.61-18.63-99.36,12.08-47.56,62.37-66.59,103.18-39.65,18.79,12.4,31.4,29.9,41.66,49.45,21.1,40.2,60.55,53.02,101.73,32.81,34.47-16.92,61.46-43.21,86.95-71.07,5.98-6.53,12.06-9.67,20.65-8.84,18.59,1.78,37.47,1.18,58.18,6.98Z" style="fill:#6464f1; stroke-width:0px;"/><path d="M919.85,227.77c-4.59-48.98-14.37-97.04-38.04-141.1C849.66,26.82,788.43-5.98,721.56.9c-46.82,4.82-85.45,27.39-120.41,56.98-53.3,45.11-94.1,100.28-127.18,161.34-4.1,7.57-7.62,12.7-17.87,10.92-67.11-11.67-134.88-15.22-202.9-14.69-24.81,0-49.65-.77-74.42.21-26.66,1.06-47.64,13.89-60.98,36.81-30.14,51.77,4.61,113.83,64.77,115.2,44.62,1.02,89.28-.28,133.91,2.23,62.91,3.54,125.31,8.88,186.36,26.61,60.48,17.56,102.17,51.63,117.95,114.91,7.67,30.78,21.7,59.41,41.28,85.04,58.86,77.02,152.11,72.73,202.89-9.4,14.75-23.85,24.92-49.57,32.08-76.46,24.75-92.87,31.75-187.35,22.8-282.84ZM862.35,355.09c-3.52,56.06-11.94,111.16-30.69,164.34-6.28,17.82-14.69,34.53-26.5,49.5-21.71,27.52-54.06,30.91-80.54,7.86-18.39-16.01-30.34-36.48-38.87-58.99-5.79-15.27-11.38-30.65-16.21-46.25-17.69-57.14-56.57-93.86-110.59-116.71-59.17-25.04-121.59-35.13-184.94-40.68-61.78-5.42-123.75-6.93-185.77-5.68-11.84.24-21.18-2.69-21.53-16.45-.34-13.56,8.32-17.78,20.45-17.63,24.28.3,48.55-2.33,70.3-.2,88.49.49,173.91,6.13,257.46,28.03,38.55,10.1,75.46,24.46,108.4,47.47,37.96,26.52,62.38,63.01,77.46,106.27,6.03,17.3,11.92,34.65,18.52,51.73,5.56,14.39,12.82,27.91,24.24,38.77,15.53,14.74,24.41,13.92,37.21-3.68,7.94-10.92,13.57-23.08,17.82-35.79,28.09-83.97,33.96-170.35,27.83-258.02-2.43-34.7-7.05-69.03-19.97-101.57-21.07-53.06-64.48-68.04-113.89-39.75-43.31,24.8-73.38,62.91-102.17,102.19-7.9,10.78-15.59,21.82-22.18,33.42-4.8,8.45-8.9,10.68-18.46,6.08-20.79-9.99-21.5-9.6-9.15-28.58,33.7-51.77,70.91-100.71,122.99-135.6,37.62-25.19,77.88-37.28,121.69-14.51,30.6,15.91,47.6,42.71,57.73,74.31,21.99,68.56,23.8,139.05,19.34,210.13ZM624.17,265.41c23.81-34.88,48.67-68.74,81.9-95.45,31.79-25.55,41.51-22.43,51.28,17.21,16.59,67.32,14.64,135.41,7.07,203.6-1.44,12.96-1.9,26.29-8.11,41.13-7.28-14.81-13.2-27.64-19.79-40.12-24.75-46.88-60.69-82.86-107.44-107.72-9.78-5.2-11.53-8.95-4.91-18.64Z" style="fill:#6464f1; stroke-width:0px;"/></svg>
